<svg width="24" height="25" viewBox="0 0 24 25" fill="none" xmlns="http://www.w3.org/2000/svg">
<path d="M14.72 9.66109L10.43 13.9611L8.78 12.3111C8.69036 12.2064 8.58004 12.1214 8.45597 12.0614C8.33191 12.0013 8.19678 11.9676 8.05906 11.9623C7.92134 11.957 7.78401 11.9802 7.65568 12.0305C7.52736 12.0807 7.41081 12.157 7.31335 12.2544C7.2159 12.3519 7.13964 12.4684 7.08937 12.5968C7.03909 12.7251 7.01589 12.8624 7.02121 13.0001C7.02653 13.1379 7.06026 13.273 7.12028 13.3971C7.1803 13.5211 7.26532 13.6314 7.37 13.7211L9.72 16.0811C9.81344 16.1738 9.92426 16.2471 10.0461 16.2969C10.1679 16.3466 10.2984 16.3719 10.43 16.3711C10.6923 16.37 10.9437 16.2658 11.13 16.0811L16.13 11.0811C16.2237 10.9881 16.2981 10.8775 16.3489 10.7557C16.3997 10.6338 16.4258 10.5031 16.4258 10.3711C16.4258 10.2391 16.3997 10.1084 16.3489 9.98652C16.2981 9.86466 16.2237 9.75406 16.13 9.66109C15.9426 9.47484 15.6892 9.3703 15.425 9.3703C15.1608 9.3703 14.9074 9.47484 14.72 9.66109ZM12 2.87109C10.0222 2.87109 8.08879 3.45758 6.4443 4.5564C4.79981 5.65521 3.51809 7.217 2.76121 9.04426C2.00433 10.8715 1.8063 12.8822 2.19215 14.822C2.578 16.7618 3.53041 18.5436 4.92894 19.9422C6.32746 21.3407 8.10929 22.2931 10.0491 22.6789C11.9889 23.0648 13.9996 22.8668 15.8268 22.1099C17.6541 21.353 19.2159 20.0713 20.3147 18.4268C21.4135 16.7823 22 14.8489 22 12.8711C22 11.5579 21.7413 10.2575 21.2388 9.04426C20.7363 7.831 19.9997 6.72861 19.0711 5.80003C18.1425 4.87144 17.0401 4.13485 15.8268 3.6323C14.6136 3.12975 13.3132 2.87109 12 2.87109ZM12 20.8711C10.4178 20.8711 8.87104 20.4019 7.55544 19.5229C6.23985 18.6438 5.21447 17.3944 4.60897 15.9326C4.00347 14.4708 3.84504 12.8622 4.15372 11.3104C4.4624 9.75852 5.22433 8.33306 6.34315 7.21424C7.46197 6.09542 8.88743 5.33349 10.4393 5.02481C11.9911 4.71613 13.5997 4.87456 15.0615 5.48006C16.5233 6.08556 17.7727 7.11094 18.6518 8.42653C19.5308 9.74213 20 11.2888 20 12.8711C20 14.9928 19.1572 17.0277 17.6569 18.5279C16.1566 20.0282 14.1217 20.8711 12 20.8711Z" fill="#52FC96"/>
</svg>
