<svg width="41" height="40" viewBox="0 0 41 40" fill="none" xmlns="http://www.w3.org/2000/svg">
<path d="M20.0606 0H19.9695C8.94893 0 0.0150146 8.93391 0.0150146 19.9545V20.0455C0.0150146 31.0661 8.94893 40 19.9695 40H20.0606C31.0811 40 40.015 31.0661 40.015 20.0455V19.9545C40.015 8.93391 31.0811 0 20.0606 0Z" fill="url(#paint0_linear_191_5047)"/>
<path d="M26.2043 8.13794H13.8271C10.4077 8.13794 7.62598 10.9197 7.62598 14.3391V25.6624C7.62598 29.0818 10.4077 31.8635 13.8271 31.8635H26.2043C29.6237 31.8635 32.4054 29.0818 32.4054 25.6624V14.3391C32.4054 10.9197 29.6237 8.13794 26.2043 8.13794ZM9.81356 14.3391C9.81356 12.1263 11.6143 10.3255 13.8271 10.3255H26.2043C28.4171 10.3255 30.2179 12.1263 30.2179 14.3391V25.6624C30.2179 27.8752 28.4171 29.676 26.2043 29.676H13.8271C11.6143 29.676 9.81356 27.8752 9.81356 25.6624V14.3391Z" fill="white"/>
<path d="M20.0159 25.7675C23.1957 25.7675 25.7841 23.1805 25.7841 19.9993C25.7841 16.8182 23.1971 14.2312 20.0159 14.2312C16.8348 14.2312 14.2478 16.8182 14.2478 19.9993C14.2478 23.1805 16.8348 25.7675 20.0159 25.7675ZM20.0159 16.4202C21.9905 16.4202 23.5965 18.0262 23.5965 20.0007C23.5965 21.9753 21.9905 23.5813 20.0159 23.5813C18.0414 23.5813 16.4354 21.9753 16.4354 20.0007C16.4354 18.0262 18.0414 16.4202 20.0159 16.4202Z" fill="white"/>
<path d="M26.3179 15.163C27.1742 15.163 27.8721 14.4665 27.8721 13.6088C27.8721 12.7512 27.1756 12.0547 26.3179 12.0547C25.4603 12.0547 24.7638 12.7512 24.7638 13.6088C24.7638 14.4665 25.4603 15.163 26.3179 15.163Z" fill="white"/>
<defs>
<linearGradient id="paint0_linear_191_5047" x1="5.85883" y1="34.1562" x2="34.1712" y2="5.84522" gradientUnits="userSpaceOnUse">
<stop stop-color="#FAAD4F"/>
<stop offset="0.35" stop-color="#DD2A7B"/>
<stop offset="0.62" stop-color="#9537B0"/>
<stop offset="1" stop-color="#515BD4"/>
</linearGradient>
</defs>
</svg>
