<svg width="41" height="40" viewBox="0 0 41 40" fill="none" xmlns="http://www.w3.org/2000/svg">
<path d="M20.0606 0H19.9695C8.94893 0 0.0150146 8.93391 0.0150146 19.9545V20.0455C0.0150146 31.0661 8.94893 40 19.9695 40H20.0606C31.0811 40 40.015 31.0661 40.015 20.0455V19.9545C40.015 8.93391 31.0811 0 20.0606 0Z" fill="black"/>
<path d="M30.1563 15.8862V19.663C29.4963 19.5985 28.6386 19.4486 27.6899 19.101C26.451 18.647 25.5289 18.0262 24.9249 17.5455V25.1789L24.9095 25.1551C24.9193 25.3064 24.9249 25.4606 24.9249 25.6161C24.9249 29.4069 21.8404 32.4928 18.0483 32.4928C14.2561 32.4928 11.1716 29.4069 11.1716 25.6161C11.1716 21.8254 14.2561 18.7381 18.0483 18.7381C18.4196 18.7381 18.784 18.7675 19.14 18.825V22.5471C18.798 22.4252 18.4309 22.3593 18.0483 22.3593C16.2531 22.3593 14.7914 23.8195 14.7914 25.6161C14.7914 27.4127 16.2531 28.873 18.0483 28.873C19.8435 28.873 21.3051 27.4113 21.3051 25.6161C21.3051 25.5489 21.3037 25.4816 21.2995 25.4143V10.5806H25.0735C25.0875 10.9001 25.1001 11.2224 25.1141 11.5419C25.1393 12.1711 25.3636 12.7752 25.7545 13.2698C26.2128 13.8514 26.8897 14.5269 27.8398 15.0664C28.7297 15.5709 29.5649 15.7867 30.1563 15.889V15.8862Z" fill="#FF004F"/>
<path d="M28.8587 12.82V16.5967C28.1986 16.5323 27.341 16.3823 26.3923 16.0348C25.1534 15.5807 24.2313 14.9599 23.6273 14.4792V22.1126L23.6119 22.0888C23.6217 22.2401 23.6273 22.3943 23.6273 22.5498C23.6273 26.3406 20.5428 29.4265 16.7507 29.4265C12.9585 29.4265 9.87402 26.3406 9.87402 22.5498C9.87402 18.7591 12.9585 15.6718 16.7507 15.6718C17.122 15.6718 17.4864 15.7012 17.8423 15.7587V19.4808C17.5004 19.3589 17.1332 19.293 16.7507 19.293C14.9555 19.293 13.4938 20.7533 13.4938 22.5498C13.4938 24.3464 14.9555 25.8067 16.7507 25.8067C18.5459 25.8067 20.0075 24.345 20.0075 22.5498C20.0075 22.4826 20.0061 22.4153 20.0019 22.348V7.51147H23.7758C23.7899 7.83099 23.8025 8.15331 23.8165 8.47283C23.8417 9.10206 24.0659 9.70606 24.4569 10.2008C24.9152 10.7823 25.5921 11.4578 26.5422 11.9973C27.4321 12.5004 28.2673 12.7177 28.8587 12.82Z" fill="#00F7EF"/>
<path d="M29.6838 14.4707V18.2475C29.0237 18.183 28.1661 18.0331 27.2173 17.6855C25.9785 17.2315 25.0564 16.6106 24.4524 16.13V23.7634L24.437 23.7395C24.4468 23.8909 24.4524 24.045 24.4524 24.2006C24.4524 27.9914 21.3679 31.0772 17.5757 31.0772C13.7836 31.0772 10.6991 27.9914 10.6991 24.2006C10.6991 20.4098 13.7836 17.3226 17.5757 17.3226C17.9471 17.3226 18.3115 17.352 18.6674 17.4094V21.1315C18.3255 21.0096 17.9583 20.9438 17.5757 20.9438C15.7806 20.9438 14.3189 22.404 14.3189 24.2006C14.3189 25.9972 15.7806 27.4574 17.5757 27.4574C19.3709 27.4574 20.8326 25.9958 20.8326 24.2006C20.8326 24.1333 20.8312 24.0661 20.827 23.9988V9.16504H24.6009C24.6149 9.48456 24.6276 9.80688 24.6416 10.1264C24.6668 10.7556 24.891 11.3596 25.282 11.8543C25.7403 12.4359 26.4171 13.1114 27.3673 13.6509C28.2572 14.154 29.0924 14.3712 29.6838 14.4735V14.4707Z" fill="white"/>
</svg>
