<svg width="41" height="40" viewBox="0 0 41 40" fill="none" xmlns="http://www.w3.org/2000/svg">
<path d="M40.015 20C40.015 8.9543 31.0607 0 20.015 0C8.96933 0 0.0150146 8.9543 0.0150146 20C0.0150146 31.0457 8.96933 40 20.015 40C31.0607 40 40.015 31.0457 40.015 20Z" fill="#FF0209"/>
<path d="M28.5049 28.8582C27.909 28.9228 27.299 28.9341 26.7144 28.9327C22.1539 28.9285 17.5934 28.9242 13.0344 28.9214C11.5995 28.9214 10.0367 28.8751 8.92786 27.963C7.67847 26.9328 7.41848 25.1466 7.3173 23.5304C7.17676 21.3155 7.16551 19.0936 7.28075 16.8773C7.344 15.6602 7.45502 14.4137 7.97923 13.3118C8.35587 12.5206 8.98407 11.8095 9.78795 11.4357C10.7225 11.0014 11.7007 11.0787 12.7069 11.0773C15.1158 11.0745 17.5246 11.0731 19.9334 11.0703C22.4378 11.0674 24.9436 11.066 27.448 11.0632C28.6313 11.0632 29.9018 11.0871 30.8673 11.7715C32.1139 12.6541 32.4526 14.3336 32.6086 15.8528C32.8967 18.6509 32.9009 21.4785 32.6198 24.2766C32.5032 25.4305 32.3092 26.6503 31.5489 27.5259C30.7956 28.3944 29.6784 28.7289 28.5063 28.8568L28.5049 28.8582Z" fill="white"/>
<path d="M24.0934 20L17.297 16.0762V23.9238L24.0934 20Z" fill="#FF0209"/>
</svg>
